<svg width="29" height="34" viewBox="0 0 29 34" fill="none" xmlns="http://www.w3.org/2000/svg">
<path d="M18.4647 1H26.2268C27.2985 1 28.1673 2.02335 28.1673 3.28571V12.4286C28.1673 13.6909 27.2985 14.7143 26.2268 14.7143H18.4647C17.393 14.7143 16.5242 13.6909 16.5242 12.4286V3.28571C16.5242 2.02335 17.393 1 18.4647 1ZM2.94052 1H10.7026C11.7743 1 12.6431 2.02335 12.6431 3.28571V12.4286C12.6431 13.6909 11.7743 14.7143 10.7026 14.7143H2.94052C1.8688 14.7143 1 13.6909 1 12.4286V3.28571C1 2.02335 1.8688 1 2.94052 1ZM18.4647 19.2857H26.2268C27.2985 19.2857 28.1673 20.3091 28.1673 21.5714V30.7143C28.1673 31.9767 27.2985 33 26.2268 33H18.4647C17.393 33 16.5242 31.9767 16.5242 30.7143V21.5714C16.5242 20.3091 17.393 19.2857 18.4647 19.2857ZM2.94052 19.2857H10.7026C11.7743 19.2857 12.6431 20.3091 12.6431 21.5714V30.7143C12.6431 31.9767 11.7743 33 10.7026 33H2.94052C1.8688 33 1 31.9767 1 30.7143V21.5714C1 20.3091 1.8688 19.2857 2.94052 19.2857Z" stroke="#75F099" stroke-linecap="round" stroke-linejoin="round"/>
</svg>
