<svg width="29" height="34" viewBox="0 0 29 34" fill="none" xmlns="http://www.w3.org/2000/svg">
<path fill-rule="evenodd" clip-rule="evenodd" d="M28.1675 28.0769V5.92308C28.1675 3.20414 26.6471 1 24.7716 1H4.39605C2.52054 1 1.00013 3.20414 1.00013 5.92308V28.0769C1.00013 30.7959 2.52054 33 4.39605 33H24.7716C26.6471 33 28.1675 30.7959 28.1675 28.0769Z" stroke="#75F099" stroke-linecap="round" stroke-linejoin="round"/>
<path fill-rule="evenodd" clip-rule="evenodd" d="M11.188 25.6154V8.38463C11.188 7.02516 10.4278 5.9231 9.49003 5.9231H6.09411C5.15635 5.9231 4.39615 7.02516 4.39615 8.38463V25.6154C4.39615 26.9749 5.15635 28.0769 6.09411 28.0769H9.49003C10.4278 28.0769 11.188 26.9749 11.188 25.6154Z" stroke="#75F099" stroke-linecap="round" stroke-linejoin="round"/>
<path fill-rule="evenodd" clip-rule="evenodd" d="M24.7715 10.8462V8.38463C24.7715 7.02516 24.0113 5.9231 23.0735 5.9231H16.2817C15.3439 5.9231 14.5837 7.02516 14.5837 8.38463V10.8462C14.5837 12.2056 15.3439 13.3077 16.2817 13.3077H23.0735C24.0113 13.3077 24.7715 12.2056 24.7715 10.8462V10.8462Z" stroke="#75F099" stroke-linecap="round" stroke-linejoin="round"/>
<path fill-rule="evenodd" clip-rule="evenodd" d="M24.7715 25.6153V20.6923C24.7715 19.3328 24.0113 18.2307 23.0735 18.2307H16.2817C15.3439 18.2307 14.5837 19.3328 14.5837 20.6923V25.6153C14.5837 26.9748 15.3439 28.0769 16.2817 28.0769H23.0735C24.0113 28.0769 24.7715 26.9748 24.7715 25.6153Z" stroke="#75F099" stroke-linecap="round" stroke-linejoin="round"/>
</svg>
