<svg width=",27,17" height="32" viewBox="0 0 29 34" fill="none" xmlns="http://www.w3.org/2000/svg">
<path d="M22.9429 14V1" stroke="#75F099" stroke-linecap="round" stroke-linejoin="round"/>
<path d="M22.9429 33V24" stroke="#75F099" stroke-linecap="round" stroke-linejoin="round"/>
<path d="M22.9429 24C25.8283 24 28.1674 21.7614 28.1674 19C28.1674 16.2386 25.8283 14 22.9429 14C20.0575 14 17.7184 16.2386 17.7184 19C17.7184 21.7614 20.0575 24 22.9429 24Z" stroke="#75F099" stroke-linecap="round" stroke-linejoin="round"/>
<path d="M6.22449 6V1" stroke="#75F099" stroke-linecap="round" stroke-linejoin="round"/>
<path d="M6.22449 33V16" stroke="#75F099" stroke-linecap="round" stroke-linejoin="round"/>
<path d="M6.22449 16C9.1099 16 11.449 13.7614 11.449 11C11.449 8.23858 9.1099 6 6.22449 6C3.33908 6 1 8.23858 1 11C1 13.7614 3.33908 16 6.22449 16Z" stroke="#75F099" stroke-linecap="round" stroke-linejoin="round"/>
</svg>
